<?xml version="1.0" encoding="UTF-8"?>
<!DOCTYPE svg PUBLIC "-//W3C//DTD SVG 1.1//EN" "http://www.w3.org/Graphics/SVG/1.1/DTD/svg11.dtd">
<!-- Creator: CorelDRAW 2018 (64-Bit Not for commercial use) -->
<svg xmlns="http://www.w3.org/2000/svg" xml:space="preserve" width="519px" height="519px" version="1.1" style="shape-rendering:geometricPrecision; text-rendering:geometricPrecision; image-rendering:optimizeQuality; fill-rule:evenodd; clip-rule:evenodd"
viewBox="0 0 25.92 25.92"
 xmlns:xlink="http://www.w3.org/1999/xlink">
 <defs>
  <style type="text/css">
   <![CDATA[
    .fil1 {fill:#00A859}
    .fil0 {fill:#ED3237}
   ]]>
  </style>
 </defs>
 <g id="Layer_x0020_1">
  <metadata id="CorelCorpID_0Corel-Layer"/>
  <path class="fil0" d="M0.76 1.01l0.25 -0.25c1.01,-1.01 2.66,-1.01 3.67,0l8.28 8.28 8.28 -8.28c1.01,-1.01 2.66,-1.01 3.67,0l0.25 0.25c1.01,1.01 1.01,2.66 0,3.67l-8.28 8.28 8.28 8.28c1.01,1.01 1.01,2.66 0,3.67l-0.25 0.25c-1.01,1.01 -2.66,1.01 -3.67,0l-8.28 -8.28 -8.28 8.28c-1.01,1.01 -2.66,1.01 -3.67,0l-0.25 -0.25c-1.01,-1.01 -1.01,-2.66 0,-3.67l8.28 -8.28 -8.28 -8.28c-1.01,-1.01 -1.01,-2.66 0,-3.67z"/>
  <path class="fil1" d="M12.96 16.88l0 0 0 0 12.2 -12.2c1.01,-1.01 1.01,-2.66 0,-3.67l-0.25 -0.25c-1.01,-1.01 -2.66,-1.01 -3.67,0l-8.28 8.28 -2.16 -2.16c-1.01,-1.01 -2.66,-1.01 -3.67,0l-0.25 0.25c-1.01,1.01 -1.01,2.66 0,3.67l6.08 6.08 0 0z"/>
 </g>
</svg>
